<svg width="244" height="26" viewBox="0 0 244 26" fill="none" xmlns="http://www.w3.org/2000/svg">
<path d="M16.694 8.748C16.694 8.748 16.5013 8.63467 16.116 8.408C15.7307 8.18133 15.2207 7.932 14.586 7.66C13.9513 7.36533 13.26 7.10467 12.512 6.878C11.764 6.65133 11.0273 6.538 10.302 6.538C9.73533 6.538 9.27067 6.62867 8.908 6.81C8.54533 6.99133 8.364 7.29733 8.364 7.728C8.364 8.136 8.54533 8.46467 8.908 8.714C9.27067 8.96333 9.78067 9.19 10.438 9.394C11.118 9.598 11.9227 9.84733 12.852 10.142C14.348 10.5953 15.64 11.1167 16.728 11.706C17.816 12.2953 18.6547 13.0547 19.244 13.984C19.8333 14.8907 20.128 16.1033 20.128 17.622C20.128 19.0727 19.8673 20.2967 19.346 21.294C18.8247 22.2687 18.122 23.0507 17.238 23.64C16.354 24.2293 15.368 24.66 14.28 24.932C13.192 25.1813 12.0813 25.306 10.948 25.306C9.792 25.306 8.57933 25.1927 7.31 24.966C6.06333 24.7167 4.85067 24.388 3.672 23.98C2.49333 23.5493 1.41667 23.0507 0.442 22.484L3.298 16.67C3.298 16.67 3.52467 16.806 3.978 17.078C4.43133 17.35 5.032 17.656 5.78 17.996C6.528 18.336 7.35533 18.642 8.262 18.914C9.19133 19.186 10.1207 19.322 11.05 19.322C11.7753 19.322 12.274 19.2313 12.546 19.05C12.8407 18.846 12.988 18.5853 12.988 18.268C12.988 17.792 12.7387 17.4293 12.24 17.18C11.7413 16.908 11.084 16.6587 10.268 16.432C9.47467 16.1827 8.59067 15.8993 7.616 15.582C6.21067 15.106 5.05467 14.5733 4.148 13.984C3.24133 13.372 2.57267 12.658 2.142 11.842C1.71133 11.0033 1.496 9.99467 1.496 8.816C1.496 7.02533 1.91533 5.52933 2.754 4.328C3.59267 3.12667 4.692 2.22 6.052 1.608C7.43467 0.973333 8.91933 0.655999 10.506 0.655999C11.6847 0.655999 12.818 0.803333 13.906 1.098C15.0167 1.37 16.048 1.71 17 2.118C17.9747 2.526 18.8247 2.91133 19.55 3.274L16.694 8.748ZM23.0584 25V0.859999H29.6884V25H23.0584ZM40.4794 13.134V25H33.8494V0.859999H39.0174L48.7074 13.134V0.859999H55.3374V25H50.0674L40.4794 13.134ZM65.0582 0.859999H72.4702L80.1542 25H73.4222L71.9602 20.274H65.5342L64.1062 25H57.3402L65.0582 0.859999ZM70.9062 15.854L68.7642 7.354L66.5202 15.854H70.9062ZM91.7703 25.204C89.8436 25.204 88.1889 24.8867 86.8063 24.252C85.4236 23.6173 84.2903 22.7447 83.4062 21.634C82.5449 20.5233 81.9103 19.254 81.5023 17.826C81.0943 16.3753 80.8903 14.8567 80.8903 13.27V0.859999H87.5203V13.27C87.5203 14.0633 87.5996 14.8227 87.7583 15.548C87.9169 16.2733 88.1663 16.9193 88.5063 17.486C88.8463 18.0527 89.2769 18.506 89.7983 18.846C90.3423 19.1633 90.9996 19.322 91.7703 19.322C92.5636 19.322 93.2323 19.1633 93.7763 18.846C94.3203 18.506 94.7509 18.0527 95.0683 17.486C95.4083 16.8967 95.6576 16.2393 95.8163 15.514C95.9749 14.7887 96.0543 14.0407 96.0543 13.27V0.859999H102.684V13.27C102.684 14.9473 102.458 16.5113 102.004 17.962C101.574 19.4127 100.916 20.682 100.032 21.77C99.1483 22.858 98.0149 23.708 96.6322 24.32C95.2723 24.9093 93.6516 25.204 91.7703 25.204ZM117.63 0.859999L122.356 17.35L127.014 0.859999H133.984L125.654 25H119.058L110.626 0.859999H117.63ZM145.733 25.204C143.897 25.204 142.231 24.864 140.735 24.184C139.239 23.4813 137.947 22.552 136.859 21.396C135.794 20.2173 134.967 18.9027 134.377 17.452C133.811 15.9787 133.527 14.46 133.527 12.896C133.527 11.2867 133.833 9.75667 134.445 8.306C135.057 6.85533 135.907 5.56333 136.995 4.43C138.106 3.274 139.409 2.36733 140.905 1.71C142.424 1.05266 144.079 0.723998 145.869 0.723998C147.705 0.723998 149.371 1.07533 150.867 1.778C152.363 2.458 153.644 3.38733 154.709 4.566C155.775 5.74467 156.591 7.07067 157.157 8.544C157.747 9.99467 158.041 11.4907 158.041 13.032C158.041 14.6187 157.735 16.1373 157.123 17.588C156.534 19.0387 155.684 20.342 154.573 21.498C153.485 22.6313 152.193 23.538 150.697 24.218C149.201 24.8753 147.547 25.204 145.733 25.204ZM140.259 12.964C140.259 13.78 140.373 14.5733 140.599 15.344C140.826 16.092 141.166 16.772 141.619 17.384C142.073 17.9733 142.639 18.4493 143.319 18.812C144.022 19.152 144.849 19.322 145.801 19.322C146.753 19.322 147.581 19.1407 148.283 18.778C148.986 18.4153 149.553 17.928 149.983 17.316C150.437 16.6813 150.765 15.99 150.969 15.242C151.196 14.4713 151.309 13.6893 151.309 12.896C151.309 12.08 151.196 11.298 150.969 10.55C150.743 9.802 150.403 9.13333 149.949 8.544C149.496 7.932 148.918 7.456 148.215 7.116C147.513 6.776 146.697 6.606 145.767 6.606C144.815 6.606 143.988 6.78733 143.285 7.15C142.605 7.51267 142.039 8 141.585 8.612C141.132 9.20133 140.792 9.88133 140.565 10.652C140.361 11.4 140.259 12.1707 140.259 12.964ZM160.851 25V0.859999H167.481V10.04L174.825 0.859999H182.305L173.533 11.672L182.917 25H175.301L169.317 16.126L167.481 18.03V25H160.851ZM189.902 0.859999H197.314L204.998 25H198.266L196.804 20.274H190.378L188.95 25H182.184L189.902 0.859999ZM195.75 15.854L193.608 7.354L191.364 15.854H195.75ZM221.358 8.748C221.358 8.748 221.165 8.63467 220.78 8.408C220.395 8.18133 219.885 7.932 219.25 7.66C218.615 7.36533 217.924 7.10467 217.176 6.878C216.428 6.65133 215.691 6.538 214.966 6.538C214.399 6.538 213.935 6.62867 213.572 6.81C213.209 6.99133 213.028 7.29733 213.028 7.728C213.028 8.136 213.209 8.46467 213.572 8.714C213.935 8.96333 214.445 9.19 215.102 9.394C215.782 9.598 216.587 9.84733 217.516 10.142C219.012 10.5953 220.304 11.1167 221.392 11.706C222.48 12.2953 223.319 13.0547 223.908 13.984C224.497 14.8907 224.792 16.1033 224.792 17.622C224.792 19.0727 224.531 20.2967 224.01 21.294C223.489 22.2687 222.786 23.0507 221.902 23.64C221.018 24.2293 220.032 24.66 218.944 24.932C217.856 25.1813 216.745 25.306 215.612 25.306C214.456 25.306 213.243 25.1927 211.974 24.966C210.727 24.7167 209.515 24.388 208.336 23.98C207.157 23.5493 206.081 23.0507 205.106 22.484L207.962 16.67C207.962 16.67 208.189 16.806 208.642 17.078C209.095 17.35 209.696 17.656 210.444 17.996C211.192 18.336 212.019 18.642 212.926 18.914C213.855 19.186 214.785 19.322 215.714 19.322C216.439 19.322 216.938 19.2313 217.21 19.05C217.505 18.846 217.652 18.5853 217.652 18.268C217.652 17.792 217.403 17.4293 216.904 17.18C216.405 16.908 215.748 16.6587 214.932 16.432C214.139 16.1827 213.255 15.8993 212.28 15.582C210.875 15.106 209.719 14.5733 208.812 13.984C207.905 13.372 207.237 12.658 206.806 11.842C206.375 11.0033 206.16 9.99467 206.16 8.816C206.16 7.02533 206.579 5.52933 207.418 4.328C208.257 3.12667 209.356 2.22 210.716 1.608C212.099 0.973333 213.583 0.655999 215.17 0.655999C216.349 0.655999 217.482 0.803333 218.57 1.098C219.681 1.37 220.712 1.71 221.664 2.118C222.639 2.526 223.489 2.91133 224.214 3.274L221.358 8.748ZM227.722 25V0.859999H234.352V25H227.722ZM238.139 25V18.744H243.375V25H238.139Z" fill="#651FAC"/>
</svg>
